{
    "asset" : {
        "generator" : "Khronos glTF Blender I/O v1.7.33",
        "version" : "2.0"
    },
    "extensionsUsed" : [
        "KHR_materials_clearcoat"
    ],
    "scene" : 0,
    "scenes" : [
        {
            "name" : "Scene",
            "nodes" : [
                5
            ]
        }
    ],
    "nodes" : [
        {
            "mesh" : 0,
            "name" : "CHAIR JOIN_0"
        },
        {
            "children" : [
                0
            ],
            "name" : "CHAIR JOIN",
            "rotation" : [
                0.45262381434440613,
                -0.4526218771934509,
                0.5432663559913635,
                0.5432558655738831
            ],
            "scale" : [
                0.1657232791185379,
                0.30000001192092896,
                0.9403994083404541
            ],
            "translation" : [
                0.0022799998987466097,
                0.10188999772071838,
                0.49153000116348267
            ]
        },
        {
            "name" : "Lamp.001"
        },
        {
            "children" : [
                2
            ],
            "name" : "Lamp",
            "rotation" : [
                0.16907447576522827,
                0.27217063307762146,
                0.7558797597885132,
                0.5709490180015564
            ],
            "scale" : [
                0.9999975562095642,
                0.9999958276748657,
                0.9999960660934448
            ],
            "translation" : [
                4.076250076293945,
                1.0054500102996826,
                5.903860092163086
            ]
        },
        {
            "children" : [
                1,
                3
            ],
            "name" : "Root"
        },
        {
            "children" : [
                4
            ],
            "name" : "Sketchfab_model",
            "rotation" : [
                -0.7071068286895752,
                0,
                0,
                0.7071068286895752
            ]
        }
    ],
    "materials" : [
        {
            "doubleSided" : true,
            "extensions" : {
                "KHR_materials_clearcoat" : {
                    "clearcoatFactor" : 1,
                    "clearcoatRoughnessFactor" : 0
                }
            },
            "name" : "Root",
            "pbrMetallicRoughness" : {
                "baseColorFactor" : [
                    0.016795432195067406,
                    0.30319714546203613,
                    0.019212963059544563,
                    1
                ],
                "metallicFactor" : 0
            }
        }
    ],
    "meshes" : [
        {
            "name" : "CHAIR JOIN_0",
            "primitives" : [
                {
                    "attributes" : {
                        "POSITION" : 0,
                        "NORMAL" : 1
                    },
                    "indices" : 2,
                    "material" : 0
                }
            ]
        }
    ],
    "accessors" : [
        {
            "bufferView" : 0,
            "componentType" : 5126,
            "count" : 9868,
            "max" : [
                3.595829963684082,
                1.1294100284576416,
                0.4669699966907501
            ],
            "min" : [
                -3.383820056915283,
                -1.1272200345993042,
                -0.4210200011730194
            ],
            "type" : "VEC3"
        },
        {
            "bufferView" : 1,
            "componentType" : 5126,
            "count" : 9868,
            "type" : "VEC3"
        },
        {
            "bufferView" : 2,
            "componentType" : 5123,
            "count" : 50751,
            "type" : "SCALAR"
        }
    ],
    "bufferViews" : [
        {
            "buffer" : 0,
            "byteLength" : 118416,
            "byteOffset" : 0
        },
        {
            "buffer" : 0,
            "byteLength" : 118416,
            "byteOffset" : 118416
        },
        {
            "buffer" : 0,
            "byteLength" : 101502,
            "byteOffset" : 236832
        }
    ],
    "buffers" : [
        {
            "byteLength" : 338336,
            "uri" : "data:application/octet-stream;base64,"
        }
    ]
}
